<svg width="345" height="345" viewBox="0 0 345 345" fill="none" xmlns="http://www.w3.org/2000/svg">
<g filter="url(#filter0_d)">
<rect x="47.75" y="68.4" width="106.5" height="85.2" rx="2.17347" fill="#F7F9FA"/>
</g>
<path d="M154.064 168.383C161.972 168.383 168.384 161.972 168.384 154.064C168.384 146.155 161.972 139.744 154.064 139.744C146.155 139.744 139.744 146.155 139.744 154.064C139.744 161.972 146.155 168.383 154.064 168.383Z" fill="#A5A9AF"/>
<path d="M160.074 153.806C161.735 154.012 163.021 155.428 163.021 157.145C163.021 159.003 161.514 160.509 159.656 160.509H154.885C154.87 160.509 154.855 160.509 154.841 160.509C154.826 160.509 154.811 160.509 154.796 160.509H151.432C151.303 160.509 151.175 160.502 151.049 160.488H149.604C147.128 160.488 145.121 158.48 145.121 156.004C145.121 153.528 147.128 151.521 149.604 151.521H149.661C150.026 148.987 152.206 147.04 154.841 147.04C157.731 147.04 160.074 149.384 160.074 152.274V153.806Z" fill="white"/>
<path fill-rule="evenodd" clip-rule="evenodd" d="M118.689 107.45C124.537 107.45 129.279 102.716 129.279 96.8774C129.279 91.0384 124.537 86.3049 118.689 86.3049C112.84 86.3049 108.099 91.0384 108.099 96.8774C108.099 102.716 112.84 107.45 118.689 107.45ZM100.246 93.2881C100.657 93.2648 100.999 93.5934 100.999 94.0054V113.826C100.999 114.226 101.324 114.55 101.724 114.55H121.544C121.956 114.55 122.284 114.892 122.261 115.304C122.215 116.107 122.129 117.363 122.004 118.105C120.312 128.177 111.552 135.85 100.999 135.85C89.2356 135.85 79.6992 126.314 79.6992 114.55C79.6992 103.987 87.3881 95.2201 97.4743 93.5403C98.2089 93.418 99.4492 93.3332 100.246 93.2881Z" fill="#F25123"/>
<g filter="url(#filter1_d)">
<rect x="200.4" y="57.75" width="85.2" height="106.5" rx="2.17347" fill="#F7F9FA"/>
</g>
<path d="M285.064 178.383C292.972 178.383 299.384 171.972 299.384 164.064C299.384 156.155 292.972 149.744 285.064 149.744C277.155 149.744 270.744 156.155 270.744 164.064C270.744 171.972 277.155 178.383 285.064 178.383Z" fill="#A5A9AF"/>
<path d="M291.074 163.806C292.735 164.012 294.021 165.428 294.021 167.145C294.021 169.003 292.514 170.509 290.656 170.509H285.885C285.87 170.509 285.855 170.509 285.841 170.509C285.826 170.509 285.811 170.509 285.796 170.509H282.432C282.303 170.509 282.175 170.502 282.049 170.488H280.604C278.128 170.488 276.121 168.48 276.121 166.004C276.121 163.528 278.128 161.521 280.604 161.521H280.661C281.026 158.987 283.206 157.04 285.841 157.04C288.731 157.04 291.074 159.384 291.074 162.274V163.806Z" fill="white"/>
<path fill-rule="evenodd" clip-rule="evenodd" d="M218.149 93.9745C218.149 93.5744 218.473 93.25 218.873 93.25H267.124C267.525 93.25 267.849 93.5744 267.849 93.9745V99.6255C267.849 100.026 267.525 100.35 267.124 100.35H218.873C218.473 100.35 218.149 100.026 218.149 99.6255V93.9745ZM218.148 108.174C218.148 107.774 218.473 107.45 218.873 107.45H267.124C267.524 107.45 267.848 107.774 267.848 108.174V113.825C267.848 114.226 267.524 114.55 267.124 114.55H218.873C218.473 114.55 218.148 114.226 218.148 113.825V108.174ZM218.873 121.65C218.473 121.65 218.148 121.975 218.148 122.375V128.026C218.148 128.426 218.473 128.75 218.873 128.75H252.924C253.324 128.75 253.648 128.426 253.648 128.026V122.375C253.648 121.975 253.324 121.65 252.924 121.65H218.873Z" fill="#3BA0F3"/>
<g filter="url(#filter2_d)">
<rect x="138.4" y="192.4" width="85.2" height="85.2" rx="2.17347" fill="#F7F9FA"/>
</g>
<path d="M223.064 291.383C230.972 291.383 237.384 284.972 237.384 277.064C237.384 269.155 230.972 262.744 223.064 262.744C215.155 262.744 208.744 269.155 208.744 277.064C208.744 284.972 215.155 291.383 223.064 291.383Z" fill="#A5A9AF"/>
<path d="M229.074 276.806C230.735 277.012 232.021 278.428 232.021 280.145C232.021 282.003 230.514 283.509 228.656 283.509H223.885C223.87 283.509 223.855 283.509 223.841 283.509C223.826 283.509 223.811 283.509 223.796 283.509H220.432C220.303 283.509 220.175 283.502 220.049 283.488H218.604C216.128 283.488 214.121 281.48 214.121 279.004C214.121 276.528 216.128 274.521 218.604 274.521H218.661C219.026 271.987 221.206 270.04 223.841 270.04C226.731 270.04 229.074 272.384 229.074 275.274V276.806Z" fill="white"/>
<path fill-rule="evenodd" clip-rule="evenodd" d="M193.427 227.9C198.329 227.9 202.302 223.927 202.302 219.025C202.302 214.124 198.329 210.15 193.427 210.15C188.526 210.15 184.552 214.124 184.552 219.025C184.552 223.927 188.526 227.9 193.427 227.9ZM173.447 232.155C173.159 231.793 172.611 231.789 172.318 232.147L153.567 255.118C153.181 255.591 153.517 256.301 154.128 256.301H207.97C208.564 256.301 208.906 255.626 208.554 255.147L197.771 240.47C197.494 240.094 196.94 240.073 196.636 240.428L188.592 249.829C188.296 250.175 187.758 250.165 187.475 249.809L173.447 232.155Z" fill="#637282"/>
<defs>
<filter id="filter0_d" x="47.75" y="68.4" width="106.5" height="86.649" filterUnits="userSpaceOnUse" color-interpolation-filters="sRGB">
<feFlood flood-opacity="0" result="BackgroundImageFix"/>
<feColorMatrix in="SourceAlpha" type="matrix" values="0 0 0 0 0 0 0 0 0 0 0 0 0 0 0 0 0 0 127 0"/>
<feOffset dy="1.44898"/>
<feColorMatrix type="matrix" values="0 0 0 0 0.858859 0 0 0 0 0.871766 0 0 0 0 0.884673 0 0 0 1 0"/>
<feBlend mode="normal" in2="BackgroundImageFix" result="effect1_dropShadow"/>
<feBlend mode="normal" in="SourceGraphic" in2="effect1_dropShadow" result="shape"/>
</filter>
<filter id="filter1_d" x="200.4" y="57.75" width="85.2" height="107.949" filterUnits="userSpaceOnUse" color-interpolation-filters="sRGB">
<feFlood flood-opacity="0" result="BackgroundImageFix"/>
<feColorMatrix in="SourceAlpha" type="matrix" values="0 0 0 0 0 0 0 0 0 0 0 0 0 0 0 0 0 0 127 0"/>
<feOffset dy="1.44898"/>
<feColorMatrix type="matrix" values="0 0 0 0 0.858859 0 0 0 0 0.871766 0 0 0 0 0.884673 0 0 0 1 0"/>
<feBlend mode="normal" in2="BackgroundImageFix" result="effect1_dropShadow"/>
<feBlend mode="normal" in="SourceGraphic" in2="effect1_dropShadow" result="shape"/>
</filter>
<filter id="filter2_d" x="138.4" y="192.4" width="85.2" height="86.649" filterUnits="userSpaceOnUse" color-interpolation-filters="sRGB">
<feFlood flood-opacity="0" result="BackgroundImageFix"/>
<feColorMatrix in="SourceAlpha" type="matrix" values="0 0 0 0 0 0 0 0 0 0 0 0 0 0 0 0 0 0 127 0"/>
<feOffset dy="1.44898"/>
<feColorMatrix type="matrix" values="0 0 0 0 0.858859 0 0 0 0 0.871766 0 0 0 0 0.884673 0 0 0 1 0"/>
<feBlend mode="normal" in2="BackgroundImageFix" result="effect1_dropShadow"/>
<feBlend mode="normal" in="SourceGraphic" in2="effect1_dropShadow" result="shape"/>
</filter>
</defs>
</svg>
