<svg width="345" height="345" viewBox="0 0 345 345" fill="none" xmlns="http://www.w3.org/2000/svg">
<g filter="url(#filter0_d)">
<rect x="127.213" y="111.125" width="91.575" height="123.75" rx="4.95" fill="#F7F9FA"/>
<rect x="128.213" y="112.125" width="89.575" height="121.75" rx="3.95" stroke="#0061FE" stroke-width="2"/>
</g>
<path fill-rule="evenodd" clip-rule="evenodd" d="M155.808 176.44H153.602V182.9H149.488V163.1H156.16C160.323 163.1 162.972 164.964 162.972 169.545C162.972 174.359 160.097 176.44 155.808 176.44ZM153.602 173.184H156.084C158.216 173.184 159.445 171.848 159.445 169.545C159.445 167.112 158.216 166.675 156.135 166.675H153.602V173.184ZM166.416 182.9V163.1H172.962C178.63 163.1 181.037 167.163 181.037 172.958C181.037 178.753 178.681 182.9 173.063 182.9H166.416ZM170.318 179.241H172.889C176.2 179.241 176.882 176.597 176.882 172.958C176.882 169.32 176.049 166.675 172.889 166.675H170.192L170.318 179.241ZM188.708 175.506V182.9H184.785V163.1H196.513V166.675H188.708V172.322H196.062V175.506H188.708V175.506Z" fill="#F25123"/>
<path d="M223.078 245.594C231.734 245.594 238.751 238.431 238.751 229.594C238.751 220.757 231.734 213.594 223.078 213.594C214.422 213.594 207.404 220.757 207.404 229.594C207.404 238.431 214.422 245.594 223.078 245.594Z" fill="#0061FE"/>
<path d="M226.956 225.617L226.956 223.617C226.956 221.923 226.283 219.903 223.08 219.903C219.877 219.903 219.204 221.923 219.204 223.617L219.204 225.617H216.223L216.223 234.474C216.224 235.459 216.633 236.403 217.359 237.099C218.086 237.795 219.071 238.187 220.098 238.188L226.061 238.188C227.089 238.187 228.074 237.795 228.8 237.099C229.527 236.403 229.936 235.459 229.937 234.474L229.937 225.617L226.956 225.617ZM220.993 223.617C220.993 222.14 221.539 221.617 223.08 221.617C224.621 221.617 225.167 222.14 225.167 223.617L225.167 225.617H220.993L220.993 223.617ZM228.148 234.474C228.148 235.004 227.928 235.513 227.537 235.888C227.145 236.263 226.615 236.474 226.061 236.474L220.098 236.474C219.545 236.474 219.014 236.263 218.623 235.888C218.231 235.513 218.011 235.004 218.011 234.474L218.011 227.331L228.148 227.331L228.148 234.474Z" fill="white"/>
<path d="M222.185 232.892V234.76H223.974V232.892C224.352 232.746 224.672 232.488 224.887 232.156C225.101 231.824 225.199 231.435 225.167 231.045C225.189 230.777 225.151 230.508 225.054 230.255C224.957 230.003 224.804 229.774 224.605 229.583C224.407 229.393 224.168 229.247 223.904 229.154C223.641 229.061 223.36 229.024 223.08 229.045C222.8 229.024 222.519 229.061 222.255 229.154C221.992 229.247 221.753 229.393 221.554 229.583C221.356 229.774 221.203 230.003 221.106 230.255C221.009 230.508 220.97 230.777 220.993 231.045C220.96 231.435 221.058 231.824 221.273 232.156C221.487 232.488 221.807 232.746 222.185 232.892Z" fill="white"/>
<defs>
<filter id="filter0_d" x="127.213" y="111.125" width="91.575" height="124.987" filterUnits="userSpaceOnUse" color-interpolation-filters="sRGB">
<feFlood flood-opacity="0" result="BackgroundImageFix"/>
<feColorMatrix in="SourceAlpha" type="matrix" values="0 0 0 0 0 0 0 0 0 0 0 0 0 0 0 0 0 0 127 0"/>
<feOffset dy="1.2375"/>
<feColorMatrix type="matrix" values="0 0 0 0 0.858824 0 0 0 0 0.870588 0 0 0 0 0.886275 0 0 0 1 0"/>
<feBlend mode="normal" in2="BackgroundImageFix" result="effect1_dropShadow"/>
<feBlend mode="normal" in="SourceGraphic" in2="effect1_dropShadow" result="shape"/>
</filter>
</defs>
</svg>
